# Blender 4.2.4 LTS
# www.blender.org
mtllib BrambleTreeProto.mtl
o BrambleTreeProto
v 0.000000 0.018175 -1.577773
v 0.000000 8.294195 -1.577773
v 0.603788 0.018175 -1.457672
v 0.603788 8.294195 -1.457672
v 1.115654 0.018175 -1.115654
v 1.115654 8.294195 -1.115654
v 1.457672 0.018175 -0.603788
v 1.457672 8.294195 -0.603788
v 1.577773 0.018175 0.000000
v 1.577773 8.294195 0.000000
v 1.457672 0.018175 0.603788
v 1.457672 8.294195 0.603788
v 1.115654 0.018175 1.115654
v 1.115654 8.294195 1.115654
v 0.603788 0.018175 1.457672
v 0.603788 8.294195 1.457672
v 0.000000 0.018175 1.577773
v 0.000000 8.294195 1.577773
v -0.603788 0.018175 1.457672
v -0.603788 8.294195 1.457672
v -1.115654 0.018175 1.115654
v -1.115654 8.294195 1.115654
v -1.457672 0.018175 0.603788
v -1.457672 8.294195 0.603788
v -1.577773 0.018175 0.000000
v -1.577773 8.294195 0.000000
v -1.457672 0.018175 -0.603788
v -1.457672 8.294195 -0.603788
v -1.115654 0.018175 -1.115654
v -1.115654 8.294195 -1.115654
v -0.603788 0.018175 -1.457672
v -0.603788 8.294195 -1.457672
v -0.000000 9.018677 2.265143
v 0.866832 9.018677 2.092719
v 1.601698 9.018677 1.601698
v 2.092719 9.018677 0.866833
v 2.265142 9.018677 0.000000
v 2.092719 9.018677 -0.866833
v 1.601698 9.018677 -1.601698
v -0.000000 9.018677 -2.265143
v 0.866832 9.018677 -2.092719
v 0.000000 -1.584826 -2.573382
v 0.984791 -1.584826 -2.377495
v 1.819656 -1.584826 -1.819656
v 2.377495 -1.584826 -0.984791
v 2.573382 -1.584826 -0.000000
v 2.377495 -1.584826 0.984791
v 1.819656 -1.584826 1.819656
v 0.984791 -1.584826 2.377495
v 0.000000 -1.584826 2.573382
v -0.984791 -1.584826 2.377495
v -1.819656 -1.584826 1.819656
v -2.377495 -1.584826 0.984791
v -2.573382 -1.584826 -0.000000
v -2.377495 -1.584826 -0.984791
v -1.819656 -1.584826 -1.819656
v -0.984791 -1.584826 -2.377495
v 1.863868 -1.584826 -0.044212
v 0.984791 -1.584826 0.984791
v -0.044212 -1.584826 1.863868
v 1.044528 -1.584826 -1.044528
v 0.000000 -1.584826 0.000000
v -1.044528 -1.584826 1.044528
v 0.044212 -1.584826 -1.863868
v -0.984791 -1.584826 -0.984791
v -1.863868 -1.584826 0.044212
v -0.866833 9.018677 2.092719
v -1.601698 9.018677 1.601698
v -2.092719 9.018677 0.866833
v -2.265143 9.018677 0.000000
v -2.092719 9.018677 -0.866833
v -1.601698 9.018677 -1.601698
v -0.866833 9.018677 -2.092719
v 0.041367 9.018677 -1.743907
v -0.921409 9.018677 -0.921408
v -1.743908 9.018677 0.041367
v 0.977301 9.018677 -0.977301
v -0.000000 9.018677 -0.000000
v -0.977301 9.018677 0.977301
v 1.743907 9.018677 -0.041367
v 0.921408 9.018677 0.921408
v -0.041367 9.018677 1.743907
v -0.000000 9.685999 4.996699
v 1.912154 9.685999 4.616348
v 3.533200 9.685999 3.533200
v 4.616348 9.685999 1.912154
v 4.996699 9.685999 0.000000
v 4.616348 9.685999 -1.912154
v 3.533200 9.685999 -3.533200
v 1.912154 9.685999 -4.616348
v -0.000000 9.685999 -4.996699
v -1.912154 9.685999 4.616348
v -3.533200 9.685999 3.533200
v -4.616348 9.685999 1.912154
v -4.996699 9.685999 0.000000
v -4.616348 9.685999 -1.912154
v -3.533200 9.685999 -3.533200
v -1.912154 9.685999 -4.616348
vn 0.1951 -0.0000 -0.9808
vn 0.5556 -0.0000 -0.8315
vn 0.8315 -0.0000 -0.5556
vn 0.9808 -0.0000 -0.1951
vn 0.9808 -0.0000 0.1951
vn 0.8315 -0.0000 0.5556
vn 0.5556 -0.0000 0.8315
vn 0.1951 -0.0000 0.9808
vn -0.1951 -0.0000 0.9808
vn -0.5556 -0.0000 0.8315
vn -0.8315 -0.0000 0.5556
vn -0.9808 -0.0000 0.1951
vn -0.9808 -0.0000 -0.1951
vn -0.8315 -0.0000 -0.5556
vn -0.0748 -0.9236 -0.3760
vn -0.5556 -0.0000 -0.8315
vn -0.1951 -0.0000 -0.9808
vn -0.7101 0.5202 -0.4745
vn -0.3187 -0.9236 0.2130
vn 0.3187 -0.9236 0.2130
vn -0.3760 -0.9236 -0.0748
vn 0.0748 -0.9236 -0.3760
vn 0.0748 -0.9236 0.3760
vn 0.3187 -0.9236 -0.2130
vn -0.2130 -0.9236 -0.3187
vn -0.2130 -0.9236 0.3187
vn 0.3760 -0.9236 0.0748
vn -0.3760 -0.9236 0.0748
vn 0.2130 -0.9236 0.3187
vn 0.2130 -0.9236 -0.3187
vn -0.3187 -0.9236 -0.2130
vn -0.0748 -0.9236 0.3760
vn 0.3760 -0.9236 -0.0748
vn -0.1666 0.5202 0.8376
vn 0.8376 0.5202 -0.1666
vn -0.1666 0.5202 -0.8376
vn -0.7101 0.5202 0.4745
vn 0.7101 0.5202 0.4745
vn 0.1666 0.5202 -0.8376
vn -0.8376 0.5202 -0.1666
vn 0.1666 0.5202 0.8376
vn 0.7101 0.5202 -0.4745
vn -0.4745 0.5202 -0.7101
vn -0.4745 0.5202 0.7101
vn 0.8376 0.5202 0.1666
vn -0.8376 0.5202 0.1666
vn 0.4745 0.5202 0.7101
vn 0.4745 0.5202 -0.7101
vn -0.0000 -1.0000 -0.0000
vn -0.0000 1.0000 -0.0000
vn -0.0472 0.9704 -0.2371
vn -0.1343 0.9704 -0.2010
vn -0.2010 0.9704 -0.1343
vn -0.2371 0.9704 -0.0472
vn -0.2371 0.9704 0.0472
vn -0.2010 0.9704 0.1343
vn -0.1343 0.9704 0.2010
vn -0.0472 0.9704 0.2371
vn 0.0472 0.9704 -0.2371
vn 0.1343 0.9704 -0.2010
vn 0.2010 0.9704 -0.1343
vn 0.2371 0.9704 -0.0472
vn 0.2371 0.9704 0.0472
vn 0.2010 0.9704 0.1343
vn 0.1343 0.9704 0.2010
vn 0.0472 0.9704 0.2371
vt 1.000000 0.500000
vt 1.000000 1.000000
vt 0.937500 1.000000
vt 0.937500 0.500000
vt 0.875000 1.000000
vt 0.875000 0.500000
vt 0.812500 1.000000
vt 0.812500 0.500000
vt 0.750000 1.000000
vt 0.750000 0.500000
vt 0.687500 1.000000
vt 0.687500 0.500000
vt 0.625000 1.000000
vt 0.625000 0.500000
vt 0.562500 1.000000
vt 0.562500 0.500000
vt 0.500000 1.000000
vt 0.500000 0.500000
vt 0.437500 1.000000
vt 0.437500 0.500000
vt 0.375000 1.000000
vt 0.375000 0.500000
vt 0.312500 1.000000
vt 0.312500 0.500000
vt 0.250000 1.000000
vt 0.250000 0.500000
vt 0.187500 1.000000
vt 0.187500 0.500000
vt 0.125000 1.000000
vt 0.125000 0.500000
vt 0.000000 1.000000
vt 0.062500 1.000000
vt 0.062500 0.500000
vt 0.000000 0.500000
vt 0.625000 0.500000
vt 0.553571 0.500000
vt 0.589286 0.500000
vt 0.446429 0.500000
vt 0.410714 0.500000
vt 0.820008 1.000000
vt 0.017703 1.000000
vt 0.500000 1.000000
vt 0.847296 1.000000
vt 0.161885 1.000000
vt 0.410714 1.000000
vt 0.212024 1.000000
vt 0.269783 1.000000
vt 0.336726 1.000000
vt 0.589286 1.000000
vt 0.835272 1.000000
vt 0.446429 1.000000
vt 0.384932 1.000000
vt 0.786112 1.000000
vt 0.553571 1.000000
vt 0.441464 1.000000
vt 0.662627 1.000000
vt 0.729309 1.000000
vt 0.615779 1.000000
vt 0.559327 1.000000
vt 0.500454 1.000000
s 0
usemtl BrambleTree
f 1/1/1 2/2/1 4/3/1 3/4/1
f 3/4/2 4/3/2 6/5/2 5/6/2
f 5/6/3 6/5/3 8/7/3 7/8/3
f 7/8/4 8/7/4 10/9/4 9/10/4
f 9/10/5 10/9/5 12/11/5 11/12/5
f 11/12/6 12/11/6 14/13/6 13/14/6
f 13/14/7 14/13/7 16/15/7 15/16/7
f 15/16/8 16/15/8 18/17/8 17/18/8
f 17/18/9 18/17/9 20/19/9 19/20/9
f 19/20/10 20/19/10 22/21/10 21/22/10
f 21/22/11 22/21/11 24/23/11 23/24/11
f 23/24/12 24/23/12 26/25/12 25/26/12
f 25/26/13 26/25/13 28/27/13 27/28/13
f 27/28/14 28/27/14 30/29/14 29/30/14
f 2/31/15 32/32/15 98/32/15 91/31/15
f 29/30/16 30/29/16 32/32/16 31/33/16
f 31/33/17 32/32/17 2/31/17 1/34/17
f 27/28/18 29/30/18 56/30/18 55/28/18
f 24/23/19 22/21/19 93/21/19 94/23/19
f 14/13/20 12/11/20 86/11/20 85/13/20
f 28/27/21 26/25/21 95/25/21 96/27/21
f 4/3/22 2/2/22 91/2/22 90/3/22
f 18/17/23 16/15/23 84/15/23 83/17/23
f 8/7/24 6/5/24 89/5/24 88/7/24
f 32/32/25 30/29/25 97/29/25 98/32/25
f 22/21/26 20/19/26 92/19/26 93/21/26
f 12/11/27 10/9/27 87/9/27 86/11/27
f 26/25/28 24/23/28 94/23/28 95/25/28
f 16/15/29 14/13/29 85/13/29 84/15/29
f 6/5/30 4/3/30 90/3/30 89/5/30
f 30/29/31 28/27/31 96/27/31 97/29/31
f 20/19/32 18/17/32 83/17/32 92/19/32
f 10/9/33 8/7/33 88/7/33 87/9/33
f 17/18/34 19/20/34 51/20/34 50/18/34
f 7/8/35 9/10/35 46/10/35 45/8/35
f 31/33/36 1/34/36 42/34/36 57/33/36
f 21/22/37 23/24/37 53/24/37 52/22/37
f 11/12/38 13/14/38 48/14/38 47/12/38
f 1/1/39 3/4/39 43/4/39 42/1/39
f 25/26/40 27/28/40 55/28/40 54/26/40
f 15/16/41 17/18/41 50/18/41 49/16/41
f 5/6/42 7/8/42 45/8/42 44/6/42
f 29/30/43 31/33/43 57/33/43 56/30/43
f 19/20/44 21/22/44 52/22/44 51/20/44
f 9/10/45 11/12/45 47/12/45 46/10/45
f 23/24/46 25/26/46 54/26/46 53/24/46
f 13/14/47 15/16/47 49/16/47 48/14/47
f 3/4/48 5/6/48 44/6/48 43/4/48
f 46/10/49 47/12/49 58/35/49 45/8/49
f 47/12/49 48/14/49 59/36/49 58/35/49
f 48/14/49 49/16/49 60/18/49 59/36/49
f 49/16/49 50/18/49 51/20/49 60/18/49
f 45/8/49 58/35/49 61/37/49 44/6/49
f 58/35/49 59/36/49 62/18/49 61/37/49
f 59/36/49 60/18/49 63/38/49 62/18/49
f 60/18/49 51/20/49 52/22/49 63/38/49
f 44/6/49 61/37/49 64/18/49 43/4/49
f 61/37/49 62/18/49 65/39/49 64/18/49
f 62/18/49 63/38/49 66/22/49 65/39/49
f 63/38/49 52/22/49 53/24/49 66/22/49
f 43/4/49 64/18/49 57/33/49 42/1/49
f 64/18/49 65/39/49 56/30/49 57/33/49
f 65/39/49 66/22/49 55/28/49 56/30/49
f 66/22/49 53/24/49 54/26/49 55/28/49
f 40/40/50 73/41/50 74/42/50 41/43/50
f 73/41/50 72/44/50 75/45/50 74/42/50
f 72/44/50 71/46/50 76/21/50 75/45/50
f 71/46/50 70/47/50 69/48/50 76/21/50
f 41/43/50 74/42/50 77/49/50 39/50/50
f 74/42/50 75/45/50 78/17/50 77/49/50
f 75/45/50 76/21/50 79/51/50 78/17/50
f 76/21/50 69/48/50 68/52/50 79/51/50
f 39/50/50 77/49/50 80/13/50 38/53/50
f 77/49/50 78/17/50 81/54/50 80/13/50
f 78/17/50 79/51/50 82/17/50 81/54/50
f 79/51/50 68/52/50 67/55/50 82/17/50
f 38/53/50 80/13/50 36/56/50 37/57/50
f 80/13/50 81/54/50 35/58/50 36/56/50
f 81/54/50 82/17/50 34/59/50 35/58/50
f 82/17/50 67/55/50 33/60/50 34/59/50
f 34/59/51 33/60/51 83/17/51 84/15/51
f 35/58/52 34/59/52 84/15/52 85/13/52
f 36/56/53 35/58/53 85/13/53 86/11/53
f 37/57/54 36/56/54 86/11/54 87/9/54
f 38/53/55 37/57/55 87/9/55 88/7/55
f 39/50/56 38/53/56 88/7/56 89/5/56
f 41/43/57 39/50/57 89/5/57 90/3/57
f 40/40/58 41/43/58 90/3/58 91/2/58
f 33/60/59 67/55/59 92/19/59 83/17/59
f 67/55/60 68/52/60 93/21/60 92/19/60
f 68/52/61 69/48/61 94/23/61 93/21/61
f 69/48/62 70/47/62 95/25/62 94/23/62
f 70/47/63 71/46/63 96/27/63 95/25/63
f 71/46/64 72/44/64 97/29/64 96/27/64
f 72/44/65 73/41/65 98/32/65 97/29/65
f 73/41/66 40/40/66 91/2/66 98/32/66
