# Blender 4.2.4 LTS
# www.blender.org
mtllib Mushroom1Proto.mtl
o Cylinder
v 0.000000 -0.585211 -0.242241
v 0.000000 0.585211 -0.242241
v 0.209787 -0.585211 -0.121120
v 0.209787 0.585211 -0.121120
v 0.209787 -0.585211 0.121120
v 0.209787 0.585211 0.121120
v 0.000000 -0.585211 0.242241
v 0.000000 0.585211 0.242241
v -0.209787 -0.585211 0.121120
v -0.209787 0.585211 0.121120
v -0.209787 -0.585211 -0.121120
v -0.209787 0.585211 -0.121120
v 0.209787 0.821178 -0.121120
v 0.000000 0.821178 -0.242241
v 0.209787 0.821178 0.121120
v 0.000000 0.821178 0.242241
v -0.209787 0.821178 0.121120
v -0.209787 0.821178 -0.121120
v -0.650890 0.585211 0.375792
v 0.000000 0.585211 0.751583
v 0.000000 0.659936 0.751583
v -0.650890 0.659936 0.375792
v 0.650890 0.585211 0.375792
v 0.650890 0.585211 -0.375792
v 0.650890 0.659936 -0.375792
v 0.650890 0.659936 0.375792
v -0.650890 0.585211 -0.375792
v -0.650890 0.585211 0.375792
v -0.650890 0.659936 0.375792
v -0.650890 0.659936 -0.375792
v 0.650890 0.585211 -0.375792
v 0.000000 0.585211 -0.751583
v 0.000000 0.659936 -0.751583
v 0.650890 0.659936 -0.375792
v 0.000000 0.585211 0.751583
v 0.650890 0.585211 0.375792
v 0.650890 0.659936 0.375792
v 0.000000 0.659936 0.751583
v 0.000000 0.585211 -0.751583
v -0.650890 0.585211 -0.375792
v -0.650890 0.659936 -0.375792
v 0.000000 0.659936 -0.751583
vn 0.5000 -0.0000 -0.8660
vn 1.0000 -0.0000 -0.0000
vn 0.5000 -0.0000 0.8660
vn -0.5000 -0.0000 0.8660
vn -1.0000 -0.0000 -0.0000
vn -0.5000 -0.0000 -0.8660
vn -0.0000 -1.0000 -0.0000
vn -0.0000 1.0000 -0.0000
vn -0.1717 0.9392 0.2973
vn 0.3433 0.9392 -0.0000
vn -0.3433 0.9392 -0.0000
vn 0.1717 0.9392 -0.2973
vn 0.1717 0.9392 0.2973
vn -0.1717 0.9392 -0.2973
vt 1.000000 0.500000
vt 1.000000 1.000000
vt 0.833333 1.000000
vt 0.833333 0.500000
vt 0.666667 1.000000
vt 0.666667 0.500000
vt 0.500000 1.000000
vt 0.500000 0.500000
vt 0.333333 1.000000
vt 0.333333 0.500000
vt 0.166667 1.000000
vt 0.166667 0.500000
vt -0.000000 1.000000
vt -0.000000 0.500000
vt 0.750000 0.490000
vt 0.957846 0.370000
vt 0.957846 0.130000
vt 0.750000 0.010000
vt 0.542154 0.130000
vt 0.542154 0.370000
vt 0.457846 0.370000
vt 0.250000 0.490000
vt 0.042154 0.370000
vt 0.042154 0.130000
vt 0.250000 0.010000
vt 0.457846 0.130000
s 0
f 1/1/1 2/2/1 4/3/1 3/4/1
f 3/4/2 4/3/2 6/5/2 5/6/2
f 5/6/3 6/5/3 8/7/3 7/8/3
f 7/8/4 8/7/4 10/9/4 9/10/4
f 9/10/5 10/9/5 12/11/5 11/12/5
f 11/12/6 12/11/6 2/13/6 1/14/6
f 1/15/7 3/16/7 5/17/7 7/18/7 9/19/7 11/20/7
f 13/21/8 14/22/8 18/23/8 17/24/8 16/25/8 15/26/8
f 19/9/4 20/7/4 21/7/4 22/9/4
f 8/7/7 20/7/7 19/9/7 10/9/7
f 16/7/2 21/7/2 20/7/2 8/7/2
f 17/9/9 22/9/9 21/7/9 16/7/9
f 10/9/6 19/9/6 22/9/6 17/9/6
f 23/5/2 24/3/2 25/3/2 26/5/2
f 4/3/7 24/3/7 23/5/7 6/5/7
f 13/3/6 25/3/6 24/3/6 4/3/6
f 15/5/10 26/5/10 25/3/10 13/3/10
f 6/5/4 23/5/4 26/5/4 15/5/4
f 27/11/5 28/9/5 29/9/5 30/11/5
f 10/9/7 28/9/7 27/11/7 12/11/7
f 17/9/3 29/9/3 28/9/3 10/9/3
f 18/11/11 30/11/11 29/9/11 17/9/11
f 12/11/1 27/11/1 30/11/1 18/11/1
f 31/3/1 32/2/1 33/2/1 34/3/1
f 2/2/7 32/2/7 31/3/7 4/3/7
f 14/2/5 33/2/5 32/2/5 2/2/5
f 13/3/12 34/3/12 33/2/12 14/2/12
f 4/3/3 31/3/3 34/3/3 13/3/3
f 35/7/3 36/5/3 37/5/3 38/7/3
f 6/5/7 36/5/7 35/7/7 8/7/7
f 15/5/1 37/5/1 36/5/1 6/5/1
f 16/7/13 38/7/13 37/5/13 15/5/13
f 8/7/5 35/7/5 38/7/5 16/7/5
f 39/13/6 40/11/6 41/11/6 42/13/6
f 12/11/7 40/11/7 39/13/7 2/13/7
f 18/11/4 41/11/4 40/11/4 12/11/4
f 14/13/14 42/13/14 41/11/14 18/11/14
f 2/13/2 39/13/2 42/13/2 14/13/2
