# Blender 4.2.4 LTS
# www.blender.org
mtllib Rock2Large.mtl
o Rock2Med
v -0.000346 0.000000 -2.768198
v -2.276024 0.000000 -1.662864
v -3.672829 0.000000 0.000000
v -2.276024 0.000000 1.662864
v -0.000346 0.000000 2.351645
v 2.217878 0.000000 1.662864
v 3.547875 0.000000 0.000000
v 2.217878 0.000000 -1.663141
v -1.721173 2.491351 -1.301341
v -0.066025 2.181788 -2.162429
v -2.744320 2.616459 0.000000
v -1.725288 2.476866 1.234521
v -0.063002 2.207279 1.745876
v 1.572850 1.987961 1.234521
v 2.564043 1.899503 0.000000
v 1.572850 1.987961 -1.307889
v -1.122560 2.729632 -0.960613
v -0.025036 2.472507 -1.522676
v -1.802396 2.903287 0.000000
v -1.141669 2.712754 0.834985
v -0.032537 2.498848 1.180847
v 1.064855 2.308076 0.834985
v 1.722828 2.193694 0.000000
v 1.064855 2.308076 -0.970806
v 1.953749 1.052650 -1.504558
v 3.171122 1.073147 0.000000
v 1.953749 1.052650 1.492565
v -0.057975 1.096920 2.110806
v -2.099934 1.164929 1.492565
v -3.322347 1.137121 0.000000
v -2.099934 1.164929 -1.504328
v -0.072506 1.084852 -2.527359
vn -0.0000 -1.0000 -0.0000
vn 0.0039 0.8763 0.4817
vn 0.3578 0.9131 0.1956
vn 0.3148 0.8651 -0.3905
vn 0.7052 0.4561 -0.5428
vn 0.3010 0.3293 0.8950
vn -0.7294 0.3055 0.6120
vn -0.4158 0.2697 -0.8685
vn 0.4481 0.3139 -0.8371
vn 0.6922 0.4686 0.5489
vn -0.2570 0.2773 0.9258
vn -0.7407 0.2962 -0.6031
vn 0.2450 0.9695 0.0117
vn 0.1732 0.9849 -0.0091
vn 0.1713 0.9852 -0.0000
vn -0.2457 0.9196 -0.3064
vn 0.3684 0.9110 -0.1855
vn 0.2623 0.8684 0.4208
vn -0.2273 0.9160 0.3306
vn -0.0487 0.8920 -0.4495
vn -0.7535 0.2151 -0.6212
vn -0.2820 0.1859 0.9412
vn 0.7475 0.2738 0.6052
vn 0.4374 0.2312 -0.8690
vn -0.4337 0.1769 -0.8835
vn -0.7519 0.2180 0.6222
vn 0.2900 0.2215 0.9310
vn 0.7493 0.2710 -0.6043
vt 0.000000 0.000000
s 0
f 3/1/1 2/1/1 1/1/1 4/1/1
f 4/1/1 1/1/1 8/1/1 5/1/1
f 5/1/1 8/1/1 7/1/1 6/1/1
f 12/1/2 13/1/2 21/1/2 20/1/2
f 14/1/3 15/1/3 23/1/3 22/1/3
f 16/1/4 10/1/4 18/1/4 24/1/4
f 26/1/5 25/1/5 16/1/5 15/1/5
f 28/1/6 27/1/6 14/1/6 13/1/6
f 30/1/7 29/1/7 12/1/7 11/1/7
f 32/1/8 31/1/8 9/1/8 10/1/8
f 25/1/9 32/1/9 10/1/9 16/1/9
f 27/1/10 26/1/10 15/1/10 14/1/10
f 29/1/11 28/1/11 13/1/11 12/1/11
f 31/1/12 30/1/12 11/1/12 9/1/12
f 19/1/13 20/1/13 18/1/13 17/1/13
f 20/1/14 21/1/14 24/1/14 18/1/14
f 21/1/15 22/1/15 23/1/15 24/1/15
f 9/1/16 11/1/16 19/1/16 17/1/16
f 15/1/17 16/1/17 24/1/17 23/1/17
f 13/1/18 14/1/18 22/1/18 21/1/18
f 11/1/19 12/1/19 20/1/19 19/1/19
f 10/1/20 9/1/20 17/1/20 18/1/20
f 2/1/21 3/1/21 30/1/21 31/1/21
f 4/1/22 5/1/22 28/1/22 29/1/22
f 6/1/23 7/1/23 26/1/23 27/1/23
f 8/1/24 1/1/24 32/1/24 25/1/24
f 1/1/25 2/1/25 31/1/25 32/1/25
f 3/1/26 4/1/26 29/1/26 30/1/26
f 5/1/27 6/1/27 27/1/27 28/1/27
f 7/1/28 8/1/28 25/1/28 26/1/28
